<svg xmlns="http://www.w3.org/2000/svg" width="70" height="97" fill="none" viewBox="0 0 70 97"><path fill="#000" d="M55 0h-1l-1 2-1 3a2 2 0 0 1-2 1 7 7 0 0 0-5 4l-2 4-4 11c0 2 0 2-2 2-3 0-2 0-2 2l1 1v1c1 0 0 0 0 0l-4 3-6 1c-5 2-9 4-13 8l-4 8a188 188 0 0 0-8 40l-1 6h33v-1a5 5 0 0 0-4-3v-1l2-3 3-15c0-4 1-8 3-11 1-2 3-5 6-6h1v16a62 62 0 0 0 2 24h13a5 5 0 0 0-4-4h-4l-1-1 1-16 3-18 2-7 4-6a6 6 0 0 0 0-6l-1-2-3-5 1-2 2-1v-1l-1-1h-2v-1a6 6 0 0 1 5-4h6a1 1 0 0 0 2-1 77 77 0 0 1 1-3v-1A36 36 0 0 0 58 7V6l-2-4-1-2Z"/></svg>