<svg xmlns="http://www.w3.org/2000/svg" width="27" height="17" fill="none" viewBox="0 0 27 17"><path fill="#666" d="M0 2.3388c0-.855.5151-1.3161 1.5453-1.3832l3.9699.0252c.2664 0 .444.1257.5328.3772.4085 1.2574.866 2.343 1.3721 3.2567.5063.9136 1.168 1.9657 1.985 3.156.071.1509.1865.2263.3463.2263.1244 0 .222-.0586.2931-.176l.0799-.2766.0267-4.3506c0-.3018-.0755-.503-.2265-.6036-.151-.1005-.4307-.176-.8392-.2263-.3198-.0503-.4796-.2347-.4796-.5533 0-.067.0088-.1173.0266-.1508C9.0054.57 10.0711.025 11.8296.025L13.3216 0c.675 0 1.2345.1593 1.6785.4778.4441.3186.6661.8215.6661 1.5089v5.7086c.1244.0838.2398.1257.3464.1257.2664 0 .4973-.1509.6927-.4527 1.9539-2.5818 3.0107-4.3086 3.1706-5.1804 0-.0168.0177-.0587.0532-.1258.1244-.2514.3286-.4694.6128-.6538.2842-.1844.5329-.3102.7461-.3772.071-.0336.1509-.0503.2397-.0503h4.1297l.2665.0251c.3552 0 .6305.1593.8259.4778a.912.912 0 0 1 .1466.327c.0266.1173.0444.2347.0532.352.0089.1174.0134.1844.0134.2012v.176c-.1244.6874-.4397 1.4209-.9459 2.2005-.5062.7796-1.1501 1.622-1.9316 2.5274-.7815.9053-1.27 1.5004-1.4654 1.7855-.1598.2011-.2398.3856-.2398.5532 0 .1341.0711.285.2132.4527l3.8899 4.6272c.2131.2682.3197.5616.3197.8802 0 .3856-.1599.7041-.4796.9556-.3197.2515-.7016.394-1.1456.4275l-.453.0252h-4.0497c-.0178 0-.0533.0041-.1066.0125-.0533.0084-.0888.0126-.1066.0126-.3908 0-.7549-.1593-1.0924-.4778-.1243-.1341-.9591-1.1233-2.5044-2.9675-.0888-.1173-.2132-.2263-.373-.3269-.0711.2683-.1643.6539-.2798 1.1568-.1154.503-.1998.8634-.2531 1.0814l-.0799.4275c-.1776.5868-.5507.9388-1.119 1.0562l-.373.0252h-2.6111c-1.4742 0-2.944-.6371-4.4094-1.9113-1.4654-1.2742-2.7843-2.9213-3.9566-4.9416C2.238 8.1018 1.1457 5.7505.1333 3.068.0443 2.8501 0 2.607 0 2.3388ZM16.0126 8.852c-.373 0-.7105-.0964-1.0125-.2892-.3019-.1928-.4529-.4569-.4529-.7922v-5.784c0-.3353-.0888-.5742-.2664-.7167-.1776-.1425-.4885-.2138-.9325-.2138l-1.5187.0503c-.7638 0-1.341.1258-1.7318.3772.7815.3521 1.1723.9221 1.1723 1.71v4.4261c-.0355.4192-.2132.767-.5329 1.0437-.3197.2766-.6749.4149-1.0657.4149-.5329 0-.9414-.243-1.2256-.7293-1.3854-1.9783-2.4157-3.856-3.0906-5.6331l-.2398-.6539L1.572 2.037c-.231 0-.3597.0126-.3864.0377-.0266.0252-.04.0964-.04.2138 0 .1509.0178.3101.0534.4778l.5595 1.4083c1.492 3.638 3.1128 6.5049 4.8624 8.6005 1.7495 2.0957 3.468 3.1435 5.1554 3.1435h2.6643c.1066 0 .1865-.0293.2398-.088.0533-.0587.0977-.1718.1332-.3395l.0533-.2515.5063-2.213c.142-.3017.2664-.5029.373-.6035.1953-.1844.4263-.2766.6927-.2766.4263 0 .8614.243 1.3055.7292l2.2647 2.716c.1421.218.2931.3269.4529.3269h4.3961c.5329 0 .7993-.1257.7993-.3772 0-.0838-.0266-.1676-.0799-.2515l-3.8633-4.5517c-.3019-.3521-.4529-.7293-.4529-1.1317s.1421-.788.4263-1.1568c.2309-.3353.6794-.8928 1.3455-1.6723.6661-.7796 1.2478-1.509 1.7451-2.1879.4974-.679.826-1.2951.9858-1.8484l.0799-.3269c-.0177-.0335-.0266-.088-.0266-.1635 0-.0754-.0089-.1383-.0266-.1886h-4.183c-.2665.1006-.4796.2515-.6395.4527l-.1598.4778c-.4441 1.1568-1.6075 2.9423-3.4903 5.3565-.373.3353-.8082.503-1.3055.503Z"/></svg>