<svg xmlns="http://www.w3.org/2000/svg" width="24" height="19" fill="none" viewBox="0 0 24 19"><path fill="#666" d="m15.8509 8.7927-5.2364-3.4909A.6545.6545 0 0 0 9.6 5.8473v6.9818a.6546.6546 0 0 0 .349.5782.643.643 0 0 0 .6655-.0327l5.2364-3.491a.6539.6539 0 0 0 .2927-.5454.6543.6543 0 0 0-.2927-.5455Zm-4.9418 2.8146V7.0691l3.4036 2.2691-3.4036 2.2691Zm12.48-8.5636a2.4002 2.4002 0 0 0-1.4509-1.6364C18.2182-.0218 12.2509 0 12 0c-.2509 0-6.2182-.0218-9.9382 1.4073A2.4 2.4 0 0 0 .611 3.0437C.3273 4.1127 0 6.0764 0 9.3382s.3273 5.2255.611 6.2945a2.4002 2.4002 0 0 0 1.4508 1.6364c3.72 1.4291 9.6873 1.4073 9.9382 1.4073h.0764c.7527 0 6.3163-.0437 9.8618-1.4073a2.4 2.4 0 0 0 1.4509-1.6364C23.6727 14.5637 24 12.6 24 9.3382s-.3273-5.2255-.6109-6.2945Zm-1.2655 12.2618a1.0906 1.0906 0 0 1-.6545.7418c-3.4909 1.3418-9.4036 1.32-9.4691 1.32-.0655 0-5.9782.0218-9.469-1.32a1.0904 1.0904 0 0 1-.6546-.7418c-.2619-1.0037-.5673-2.8473-.5673-5.9673 0-3.12.3054-4.9636.5673-5.9673a1.0909 1.0909 0 0 1 .6545-.7418c3.491-1.3418 9.4036-1.32 9.4691-1.32.0655 0 5.9782-.0218 9.4691 1.32a1.0915 1.0915 0 0 1 .6545.7418c.2619 1.0037.5673 2.8473.5673 5.9673 0 3.12-.3054 4.9636-.5673 5.9673Z"/></svg>