<svg xmlns="http://www.w3.org/2000/svg" width="134" height="56" fill="none" viewBox="0 0 134 56"><path fill="#000" d="m123 6 5-5c1-1 1-1 2 1l1 6a2 2 0 0 0 0 2l2 2a6 6 0 0 1 1 6l-1 3v3a4 4 0 0 1-2 4c-2 0-3 1-3 2a1 1 0 0 1-1 0c-2 0-5-2-5-4 1-4 0-4-3-6l-2-1h-2l-1 2v8c3 4 4 10 6 15 1 4 3 6 7 6h2a4 4 0 0 1 4 4c0 2 0 2-2 2h-7l-2-1-3-2-4-2-4-5-8-8c-2-2-3-5-3-8l-2-1h-1c-2 0-4 2-5 5l-3 6-1 4c0 2 1 3 3 4l3 2c1 2 1 2-1 2h-7a2 2 0 0 1-2-1l-1-3a6 6 0 0 1-1-5v-5a8 8 0 0 1 2-7l-1-2a50 50 0 0 1-12-4c-3-1-3-1-4 3l-2 8c-1 3 0 6 1 9l2 2c2 0 4 1 5 3l-1 2h-6l-4-1c-5-4-6-9-6-14-1-3-2-6-5-8l-1-1c-2 2-4 3-7 3-5 2-9 5-12 9l-2 5c0 2 0 3 2 3 2 1 3 2 3 4l-1 1h-8a2 2 0 0 1-2-1c-1-1-2-3-1-5V36a6 6 0 0 1 4-4c6-3 9-8 12-14l-1-1c-3 0-6 1-8 3l-8 7c-3 3-7 5-11 5-7 0-10-4-10-10l2-6a4 4 0 0 1 5-2c1 1 2 1 1 3l-1 2-1 2c-1 3 1 5 4 5s6-1 8-3l8-8a21 21 0 0 1 15-9l6-1c4-2 9-2 13-2l6-1c5-2 10-2 15-1l12 2h7l13-2 9 2c2 1 2 1 1 3Z"/></svg>