<svg xmlns="http://www.w3.org/2000/svg" width="101" height="19" fill="none" viewBox="0 0 101 19"><path fill="#111" d="M1.22 16.48a6.8 6.8 0 0 1-1.2-4.33V5.88A6.9 6.9 0 0 1 1.2 1.5C2 .5 3.35 0 5.28 0c1.92 0 3.22.44 3.9 1.31a5.51 5.51 0 0 1 1.14 3.76v1.47H6.77v-1.6c0-.42-.04-.84-.11-1.25a1.4 1.4 0 0 0-.4-.8 1.35 1.35 0 0 0-1-.3c-.25-.04-.5 0-.74.1-.23.12-.42.3-.54.52a4.46 4.46 0 0 0-.3 1.84V13a3.9 3.9 0 0 0 .34 1.84c.13.21.31.38.53.49.22.1.47.15.72.12.24.04.48 0 .7-.12.22-.1.39-.28.5-.5.2-.58.3-1.2.26-1.83v-1.67h3.55v1.45a5.94 5.94 0 0 1-1.05 3.85c-.76.92-2.06 1.37-3.91 1.37s-3.3-.5-4.1-1.53ZM15.16.25h4.06l3.43 17.55h-3.38l-.6-3.87h-2.85l-.69 3.85H11.7L15.16.25Zm3.13 11.47L17.2 4.67l-1.08 7.05h2.16ZM25.28 2.9h-2.77V.24h9.19V2.9h-2.74v14.89h-3.68V2.89Z"/><path fill="#444" d="M38.91.25h6.98v1.83h-4.46v5.79h3.62V9.6h-3.62v6.42h4.5v1.76H38.9V.25ZM47.95.25h1.72L54.8 11.9V.25h2.1V17.8h-1.6L50.15 5.84v11.94h-2.13L47.95.25ZM59.68.25h6.96v1.83h-4.46v5.79h3.66V9.6h-3.62v6.42h4.47v1.76h-7.01V.25ZM68.7.25h3.63a6.12 6.12 0 0 1 4 1.1c.86.73 1.28 1.91 1.28 3.56 0 2.23-.74 3.59-2.22 4.08l2.57 8.79h-2.43l-2.36-8.23h-1.95v8.23h-2.51V.25Zm3.44 7.52c.83.08 1.65-.14 2.32-.63a2.96 2.96 0 0 0 .7-2.26 4.77 4.77 0 0 0-.25-1.68 1.57 1.57 0 0 0-.86-.9A4.18 4.18 0 0 0 72.3 2h-1.1v5.8l.95-.03ZM81 16.48a7.57 7.57 0 0 1-1.1-4.47V6.16a11 11 0 0 1 .43-3.34c.25-.82.77-1.53 1.5-2.01.86-.51 1.86-.76 2.87-.7a4.62 4.62 0 0 1 3.59 1.23 5.74 5.74 0 0 1 1.1 3.87v.65h-2.36v-.54c.01-.65-.04-1.3-.16-1.94a1.67 1.67 0 0 0-.65-1.03 2.63 2.63 0 0 0-1.47-.34 2.2 2.2 0 0 0-1.56.47c-.35.33-.58.76-.66 1.23-.1.7-.15 1.39-.14 2.08v6.51c-.07 1 .1 1.98.5 2.9a2.42 2.42 0 0 0 1.94.87 2.48 2.48 0 0 0 1.9-.95c.41-.96.6-2 .52-3.05v-1.24h-2.28V9.1h4.55v8.68h-1.56l-.25-2.02c-.2.67-.61 1.26-1.2 1.66-.58.4-1.28.6-2 .57A4.1 4.1 0 0 1 81 16.5ZM94.73 11.6 90.85.24h2.33l2.75 8.46L98.64.25H101L97.14 11.6v6.19h-2.4v-6.19Z"/></svg>