<svg xmlns="http://www.w3.org/2000/svg" width="20" height="18" fill="none" viewBox="0 0 20 18"><path fill="#666" fill-rule="evenodd" d="M19.4608.153a.6565.6565 0 0 1 .2264.6115l-2.6261 15.7569a.6564.6564 0 0 1-1.0118.4383l-7.8785-5.2523a.6563.6563 0 0 1-.1485-.9564l2.6107-3.2633-4.36 2.9067a.6567.6567 0 0 1-.6578.0409L.363 7.8092a.6565.6565 0 0 1 .0728-1.2056L18.8188.0383a.6566.6566 0 0 1 .642.1146ZM2.3263 7.3227l3.5354 1.7677 7.5614-5.041a.6565.6565 0 0 1 .8769.9564l-4.805 6.0062 6.4378 4.2918 2.2755-13.6533-15.882 5.6722Z" clip-rule="evenodd"/></svg>